#!OML:ASF H:\MichaelJackson\Top Level 1\Subject 1\Session 1\male.ASF
:FULLY-SPECIFIED
:DEGREES
475
root 0.745874 16.0534 -17.817 8.89435 -3.16891 -9.75318
lowerback -0.177628 2.87853 4.5219
upperback 0.926507 3.79328 1.0395
thorax 1.27457 1.93246 -1.40302
lowerneck -6.61261 -0.278323 3.19955
upperneck 4.26059 -0.651025 -0.17105
head 2.48606 -0.274205 -0.634896
rclavicle -3.11098e-014 -2.38542e-015
rhumerus -30.7165 7.47742 -96.9056
rradius 28.5669
rwrist 30.7735
rhand -28.2039 -20.1146
rfingers 7.12502
rthumb -1.58283 -410.088
lclavicle -3.11098e-014 -2.38542e-015
lhumerus -55.2036 -4.76621 96.12
lradius 54.4473
lwrist 35.1718
lhand -12.2143 12.8587
lfingers 7.12502
lthumb 13.8505 42.3775
rfemur 2.9293 3.02846 23.7857
rtibia 22.162
rfoot -29.9024 -7.87671
rtoes -20.5833
lfemur -44.6707 2.25433 0.41644
ltibia 24.0054
lfoot -8.6158 14.4516
ltoes 9.11459
476
root 0.777342 16.0226 -17.6932 8.87288 -3.32217 -9.7127
lowerback 0.0264098 2.9705 4.29834
upperback 0.955915 3.9291 0.904991
thorax 1.19251 1.99801 -1.42462
lowerneck -6.5847 -0.27042 3.19584
upperneck 4.18622 -0.647745 -0.00704664
head 2.45605 -0.268244 -0.580854
rclavicle -3.37934e-015 8.74653e-015
rhumerus -31.3509 11.1557 -98.3408
rradius 30.3648
rwrist 30.3134
rhand -27.1401 -18.9655
rfingers 7.12502
rthumb -0.555408 -408.944
lclavicle -3.37934e-015 8.74653e-015
lhumerus -55.8967 -4.99232 96.1756
lradius 54.9874
lwrist 35.3398
lhand -12.1915 13.3776
lfingers 7.12502
lthumb 13.8724 42.8949
rfemur 3.43987 3.39942 23.7301
rtibia 22.1661
rfoot -29.7983 -8.71241
rtoes -21.4372
lfemur -45.1692 4.00413 -0.772482
ltibia 25.4829
lfoot -7.4148 13.3795
ltoes 7.38598
477
root 0.810412 15.9942 -17.5685 8.88348 -3.49519 -9.63914
lowerback 0.229482 3.08358 4.04705
upperback 0.968279 4.09257 0.741663
thorax 1.09484 2.07689 -1.46111
lowerneck -6.54699 -0.272294 3.1999
upperneck 4.10331 -0.658445 0.173964
head 2.42122 -0.268791 -0.523291
rclavicle -4.55217e-014 1.03368e-014
rhumerus -32.1513 14.4231 -99.6165
rradius 32.4199
rwrist 29.8847
rhand -25.6788 -17.8312
rfingers 7.12502
rthumb 0.855984 -407.809
lclavicle -4.55217e-014 1.03368e-014
lhumerus -56.7429 -5.27062 96.2327
lradius 55.7092
lwrist 35.5526
lhand -12.321 13.8017
lfingers 7.12502
lthumb 13.7477 43.3275
rfemur 3.87505 3.78483 23.6538
rtibia 22.2475
rfoot -29.6569 -9.60488
rtoes -22.2341
lfemur -45.7826 5.79493 -2.0032
ltibia 26.9752
lfoot -6.21549 12.3153
ltoes 5.69248
478
root 0.844863 15.9683 -17.4428 8.91736 -3.69391 -9.53601
lowerback 0.431257 3.20527 3.76198
upperback 0.983646 4.26596 0.562175
thorax 0.999904 2.16076 -1.49596
lowerneck -6.53584 -0.271812 3.18396
upperneck 4.00651 -0.665783 0.37381
head 2.38687 -0.267663 -0.456331
rclavicle -1.53064e-014 1.11319e-014
rhumerus -33.0559 17.3056 -100.738
rradius 34.6907
rwrist 29.401
rhand -24.01 -16.7862
rfingers 7.12502
rthumb 2.46773 -406.752
lclavicle -1.53064e-014 1.11319e-014
lhumerus -57.7124 -5.56678 96.293
lradius 56.6207
lwrist 35.8006
lhand -12.6736 14.1022
lfingers 7.12502
lthumb 13.4078 43.6507
rfemur 4.23079 4.14407 23.5565
rtibia 22.425
rfoot -29.4736 -10.5595
rtoes -23.0154
lfemur -46.486 7.64025 -3.28975
ltibia 28.4965
lfoot -5.13257 11.2469
ltoes 4.16374
479
root 0.88052 15.9444 -17.3161 8.9715 -3.90596 -9.40498
lowerback 0.633711 3.34842 3.46369
upperback 0.98963 4.46666 0.347619
thorax 0.897714 2.25827 -1.56031
lowerneck -6.50024 -0.282931 3.19459
upperneck 3.86726 -0.689538 0.584172
head 2.33375 -0.274747 -0.391088
rclavicle 2.98177e-015 1.43125e-014
rhumerus -34.0523 19.6818 -101.709
rradius 37.1396
rwrist 28.8717
rhand -22.2738 -15.8019
rfingers 7.12502
rthumb 4.14438 -405.741
lclavicle 2.98177e-015 1.43125e-014
lhumerus -58.8455 -5.96963 96.3664
lradius 57.7294
lwrist 36.0615
lhand -13.3088 14.2194
lfingers 7.12502
lthumb 12.7955 43.8072
rfemur 4.49601 4.45985 23.4437
rtibia 22.7274
rfoot -29.2421 -11.5861
rtoes -23.7697
lfemur -47.2639 9.52768 -4.63706
ltibia 30.0609
lfoot -4.28347 10.2005
ltoes 2.8036
480
root 0.917479 15.9225 -17.1879 9.02809 -4.13438 -9.24693
lowerback 0.829038 3.49503 3.13454
upperback 1.01965 4.66922 0.123878
thorax 0.82218 2.35734 -1.6166
lowerneck -6.49615 -0.296071 3.18776
upperneck 3.69063 -0.714553 0.79579
head 2.27424 -0.283384 -0.322691
rclavicle 1.31198e-014 -1.98785e-014
rhumerus -35.0744 21.6485 -102.508
rradius 39.7136
rwrist 28.2413
rhand -20.5201 -14.8689
rfingers 7.12502
rthumb 5.83768 -404.769
lclavicle 1.31198e-014 -1.98785e-014
lhumerus -60.0688 -6.41913 96.4667
lradius 59.0003
lwrist 36.2878
lhand -14.2321 14.1383
lfingers 7.12502
lthumb 11.9053 43.7798
rfemur 4.68558 4.70849 23.3101
rtibia 23.163
rfoot -28.949 -12.7022
rtoes -24.5869
lfemur -48.0727 11.4271 -6.02734
ltibia 31.6797
lfoot -3.70435 9.27934
ltoes 1.56328
481
root 0.955757 15.9019 -17.0586 9.09657 -4.34743 -9.06363
lowerback 1.02212 3.64037 2.79176
upperback 1.05751 4.86802 -0.116199
thorax 0.755504 2.45479 -1.6826
lowerneck -6.49915 -0.321229 3.17939
upperneck 3.47527 -0.754309 1.00671
head 2.20329 -0.300227 -0.254922
rclavicle -5.725e-014 -3.33958e-014
rhumerus -36.1178 23.1799 -103.143
rradius 42.3807
rwrist 27.5463
rhand -18.885 -14.035
rfingers 7.12502
rthumb 7.41615 -403.885
lclavicle -5.725e-014 -3.33958e-014
lhumerus -61.3743 -6.94083 96.5911
lradius 60.3925
lwrist 36.4294
lhand -15.3922 13.8597
lfingers 7.12502
lthumb 10.7865 43.5627
rfemur 4.78616 4.86209 23.157
rtibia 23.7309
rfoot -28.5853 -13.8775
rtoes -25.3829
lfemur -48.9009 13.281 -7.43892
ltibia 33.3359
lfoot -3.42798 8.57946
ltoes 0.514753
482
root 0.996001 15.8833 -16.9271 9.16102 -4.54108 -8.85391
lowerback 1.20866 3.78917 2.44481
upperback 1.10761 5.06926 -0.373079
thorax 0.70582 2.5539 -1.7634
lowerneck -6.49205 -0.366764 3.18406
upperneck 3.22145 -0.819742 1.20514
head 2.1178 -0.331011 -0.194347
rclavicle -1.74931e-014 9.54166e-015
rhumerus -37.1684 24.2813 -103.612
rradius 45.0953
rwrist 26.7919
rhand -17.5415 -13.3227
rfingers 7.12502
rthumb 8.71285 -403.123
lclavicle -1.74931e-014 9.54166e-015
lhumerus -62.7191 -7.54012 96.7363
lradius 61.8383
lwrist 36.4502
lhand -16.7011 13.4111
lfingers 7.12502
lthumb 9.52374 43.1759
rfemur 4.82357 4.90523 22.9741
rtibia 24.4149
rfoot -28.1212 -15.113
rtoes -26.2567
lfemur -49.6973 15.045 -8.84132
ltibia 34.9918
lfoot -3.42274 8.18886
ltoes -0.118464
483
root 1.0385 15.867 -16.7928 9.22262 -4.70234 -8.61707
lowerback 1.38216 3.93208 2.09238
upperback 1.17034 5.26051 -0.637498
thorax 0.675731 2.64835 -1.84829
lowerneck -6.48339 -0.429223 3.19102
upperneck 2.94356 -0.905618 1.38612
head 2.0243 -0.373229 -0.140499
rclavicle 3.97569e-014 1.90833e-014
rhumerus -38.2257 25.047 -103.938
rradius 47.8191
rwrist 25.9677
rhand -16.4961 -12.8129
rfingers 7.12502
rthumb 9.72158 -402.569
lclavicle 3.97569e-014 1.90833e-014
lhumerus -64.0507 -8.17199 96.881
lradius 63.2789
lwrist 36.313
lhand -18.0261 12.8845
lfingers 7.12502
lthumb 8.24518 42.7036
rfemur 4.80811 4.82914 22.7511
rtibia 25.1918
rfoot -27.5492 -16.3567
rtoes -27.1651
lfemur -50.4396 16.6784 -10.2077
ltibia 36.5907
lfoot -3.59449 8.16971
ltoes -0.450582
